<svg xmlns="http://www.w3.org/2000/svg" width="1440" height="1440" version="1.0" viewBox="0 0 1080 1080"><path d="M359 522c0 77.3 0 78 2 78s2-.7 2-78 0-78-2-78-2 .7-2 78zm-98-67.6c0 .8-1.6 3-3.6 5-3.3 3.3-3.6 4.1-3.1 7.6l.5 4H219v4c0 3 .4 4 1.6 4 2 0 2.1-.3-8.2 24.7-4.6 11.2-8.4 21.4-8.4 22.8 0 1.4 1.1 3.2 2.6 4.4 2.4 1.9 4 2.1 18.4 2.1 14.4 0 16-.2 18.4-2.1 1.4-1.1 2.6-3.1 2.6-4.3 0-3.2-18.8-47.9-20.8-49.4-1.4-1 1.3-1.2 14.8-1l16.5.3.3 42.7.2 42.6-3.9 3.1-3.9 3.1H233c-9.6 0-16.9.4-18.2 1.1-1.8 1-4.8 6.5-4.8 8.9 0 .7 17.4 1 53.6 1h53.6l-.7-3.3c-.4-1.7-1.8-4.2-3.1-5.5-2.4-2.1-3.3-2.2-19-2.2-16.5 0-16.5 0-20-2.8l-3.4-2.7V475h15.9c8.8 0 16.2.4 16.5.9.3.5-.2 1.1-1.2 1.3-1.2.4-4.8 8-11.6 24.8-12.9 31.8-13.2 31 12.2 31 24.6 0 24.6.1 11.9-30-7.8-18.5-9.2-22.7-8.1-23.6.8-.6 1.4-2.8 1.4-4.8V471h-35v-4.5c0-3.9-.4-4.8-3.5-7.2-1.9-1.5-3.5-3.6-3.5-4.6 0-1.1-.8-1.7-2.5-1.7-1.5 0-2.5.6-2.5 1.4zm1 10.2c0 .8.9 1.4 2 1.4s2-.7 2-1.5c0-2.2 1.8-1.8 2.5.6 1.3 4.1-5.2 7.8-8.3 4.7-1.3-1.3-1.6-6-.6-7.1 1-.9 2.4.2 2.4 1.9zm4 53.9V561h-5v-85h5v42.5zm44.5-14 6.4 15.5h-28.7l5.5-13.3c3-7.2 6.2-14.9 7-17.1 1.9-4.6 1.4-5.5 9.8 14.9zm-78.3-1.3 6.6 16.3-13.5.3c-7.5.1-13.8 0-14-.2-.3-.3 2.1-6.7 5.2-14.3 3.1-7.6 6.1-14.8 6.6-16.1.5-1.2 1.2-2.2 1.7-2.2.4 0 3.8 7.3 7.4 16.2zm8.6 23c-.4 1-4.5 1.3-16.3 1.3s-15.9-.3-16.2-1.3c-.4-.9 3.3-1.2 16.2-1.2 12.9 0 16.6.3 16.3 1.2zm78 0c-.4 1-4.5 1.3-16.3 1.3s-15.9-.3-16.2-1.3c-.4-.9 3.3-1.2 16.2-1.2 12.9 0 16.6.3 16.3 1.2zM271.3 569l3.5 3h16.8c9.3 0 17.6.5 18.4 1 1 .6-15.1 1-46.5 1s-47.5-.4-46.5-1c.8-.5 9.2-1 18.7-1 15.5 0 17.3-.2 18.5-1.8 2-2.9 4.9-4.1 9.5-4.2 3.3 0 5 .7 7.6 3zm133.5-93.3c1.7.7 1.7 27.4 0 29.1-.9.9.5 1.2 6.3 1.2 5.5-.1 7-.3 5.7-1.1-1.4-.8-1.8-2.4-1.8-7.4V491h8v6.3c0 3.6-.5 6.8-1.2 7.5-.9.9.5 1.2 6.3 1.2 5.5-.1 7-.3 5.7-1.1-1.6-.9-1.8-2.7-1.8-14.4s.2-13.5 1.8-14.4c1.2-.8-.2-1-5.8-1-4.1 0-6.9.3-6.2.6.8.3 1.2 2.7 1.2 6.9v6.4h-8v-5.8c0-3.2.5-6.3 1.2-7 .9-.9-.3-1.2-5.7-1.1-3.9 0-6.4.3-5.7.6zm70.4 1.3c-4.1 2.5-6.2 7.3-6.2 14.1 0 9.9 4.8 14.9 14.5 14.9 2.5 0 5.9-.7 7.5-1.5 8.4-4.3 9.1-21.8 1.1-27.2-4.5-3-12.2-3.1-16.9-.3zm11.2.6c1.3 1.2 1.6 3.9 1.6 12.9s-.3 11.7-1.6 12.9c-1.9 2-3.5 2-6 .2-1.7-1.3-1.9-2.7-1.9-12.9 0-11.9.9-14.7 4.6-14.7.9 0 2.5.7 3.3 1.6zm47.9-1.5c1.5.9 1.7 2.6 1.7 12.4 0 10.5.2 11.6 2.4 14.1 2 2.4 3.2 2.8 8.9 3.2 6 .4 6.8.2 9.1-2.1 2.5-2.5 2.6-3.1 2.6-14.5 0-7.8.4-12.2 1.2-13 .9-.9.4-1.2-2.2-1.2-3 0-3.2.1-1.6 1.3s1.7 2.7 1.4 12.4c-.4 12.7-1.6 15.3-7.4 15.3-4.7 0-5.7-2.5-6.2-15.4-.4-9.7-.3-11.1 1.4-12.3 1.5-1.1.8-1.3-5.7-1.3-5.5.1-7 .3-5.6 1.1zm69.3 1.4c-2 1.8-2.6 3.4-2.6 6.5 0 6.7.8 7.5 12.7 12.1 1.2.4 2.7 1.7 3.3 2.8.8 1.7.6 2.5-1.1 4.2-2.9 2.9-6.5 1.9-11.2-3.3-2-2.2-3.9-3.9-4.1-3.7-.2.2 0 2.4.3 4.9l.6 4.5 6.9.4c7.8.4 11-.9 13.2-5.1 3.5-6.8.8-11.7-8.6-15.3-5.7-2.2-7-3.1-7-4.9 0-5.3 5.3-6.1 9.9-1.5 1.7 1.7 3.1 3.5 3.1 4s.5.9 1 .9c.6 0 1-1.7 1-3.9 0-3.5-.3-3.9-3.1-4.5-6.7-1.3-11.5-.7-14.3 1.9zm59-.3c-.8 3.2-.7 8.8.2 8.8.4-.1 1.6-2 2.7-4.3s2.8-4.3 3.8-4.5c1.5-.3 1.7.8 1.7 13.2 0 11.4-.2 13.6-1.5 13.6-.8 0-1.5.4-1.5 1s3.2 1 7.5 1 7.5-.4 7.5-1-.7-1-1.5-1c-1.3 0-1.5-2.2-1.5-13.6 0-12.4.2-13.5 1.8-13.2.9.2 2.6 2.2 3.7 4.5s2.4 4.2 2.8 4.3c.4 0 .7-2.4.5-5.3l-.3-5.2-12.6-.3c-12.4-.3-12.7-.2-13.3 2zm-249.8 61.3c-5.9 3.3-8.6 14.3-5.4 22 2.4 5.6 6.7 7.6 15.8 7.3l7.8-.3v-4.8c0-2.6-.2-4.7-.5-4.7-.2 0-1.1 1.3-2 3-3.8 7.3-10.4 7.5-12.4.3-1.7-5.9-1.3-15.3.7-19.3 3.1-6.2 7.4-5 12.9 3.6 1 1.6 1.2 1.2 1.2-3.1l.1-5-7.8-.2c-5.4-.2-8.5.2-10.4 1.2zm62.4.5c-4.1 2.5-6.2 7.3-6.2 14.1 0 9.9 4.8 14.9 14.5 14.9 9.6 0 14-5 13.9-16 0-3.6-.6-7.5-1.3-8.8-3.2-6-14.3-8.2-20.9-4.2zm11.2.6c1.3 1.2 1.6 3.9 1.6 12.9s-.3 11.7-1.6 12.9c-1.9 2-3.5 2-6 .2-1.7-1.3-1.9-2.7-1.9-12.9 0-11.9.9-14.7 4.6-14.7.9 0 2.5.7 3.3 1.6zm48.4-1.9c1.5.6 1.8 28.3.2 28.3-.5 0-1 .4-1 1 0 .5 1.4 1 3 1 1.7 0 3-.5 3-1 0-.6-.4-1-1-1s-1-4.7-1-12.3l.1-12.2 7 13.2c6.9 13.1 7.1 13.3 10.5 13.3h3.4v-14.9c0-11 .3-15.1 1.3-15.4.6-.3-.4-.5-2.3-.5s-2.9.2-2.2.5c.8.3 1.2 3.3 1.2 10.1l-.1 9.7-5.5-10.3-5.6-10.2-6.1.1c-3.4 0-5.6.3-4.9.6zm68.9 1.7c-2.1 2-2.7 3.4-2.7 6.9 0 5.7 1.3 7.2 8.4 10 3.2 1.2 6.5 3.2 7.3 4.4 1.3 1.9 1.2 2.4-.7 4.3-3 3-6.6 2-11.3-3.2-2-2.2-3.9-3.9-4.1-3.7-.2.2 0 2.4.3 4.9l.6 4.5 6.3.3c7.5.5 11.8-1.1 13.7-4.9 3.6-6.9.9-11.8-8.5-15.4-5.7-2.2-7-3.1-7-4.9 0-5.3 5.3-6.1 9.9-1.5 1.7 1.7 3.1 3.5 3.1 4s.5.9 1 .9c.6 0 1-1.9 1-4.3v-4.2l-7.3-.3c-6.6-.3-7.5-.1-10 2.2zm59.1-1.2c.8.8 1.2 5 1.2 12.4 0 10.4.2 11.5 2.4 14 2 2.4 3.2 2.8 8.9 3.2 6 .4 6.8.2 9.1-2.1 2.5-2.5 2.6-3.1 2.6-14.6 0-10.4.2-12.1 1.8-13 1.3-.8.9-1-2.3-1-3.2 0-3.6.2-2.2 1s1.7 2.6 1.7 11.5c0 13.6-1.3 16.4-7.7 16.4-2.2 0-3.6-.6-4.3-1.9-1.5-2.9-1.3-25.8.3-26.4.6-.3-1.9-.6-5.7-.6-5.5-.1-6.7.2-5.8 1.1zm65.2-.2c0 .5.5 1 1 1 .6 0 1 5.2 1 13.5s-.4 13.5-1 13.5c-.5 0-1 .4-1 1s4.5 1 11.4 1h11.4l.4-5.1c.1-2.8 0-5.3-.4-5.6-.5-.2-.8 0-.8.6 0 2.2-6.3 8.1-8.6 8.1H739v-13.5c0-12.8.1-13.5 2-13.5 1.1 0 2-.5 2-1 0-.6-3.2-1-7.5-1s-7.5.4-7.5 1zm63 1.4c0 1.3-.3 3.8-.6 5.5-.9 4.4.7 3.8 3.1-1.2 1.1-2.3 2.8-4.3 3.8-4.5 1.5-.3 1.7.8 1.7 13.2 0 11.4-.2 13.6-1.5 13.6-.8 0-1.5.4-1.5 1s3.4 1 8.1 1c5.1 0 7.8-.4 7.4-1-.3-.6-1.3-1-2.1-1-1.1 0-1.4-2.4-1.4-13.5 0-10.6.3-13.5 1.3-13.5 1.9 0 4.4 3 5.2 6.2 1.2 4.6 2.5 3.1 2.5-2.7V537h-26v2.4zm70.8-1.7c1.7.7 1.7 27.4 0 29.1-.9.9.5 1.2 6.3 1.2 6.4-.1 7.2-.2 5.7-1.4-1.6-1.1-1.8-3.1-1.8-14.4 0-11.4.2-13.2 1.8-14.1 1.2-.8-.2-1-5.8-1-4.1 0-6.9.3-6.2.6zm57.5.4c1.5.9 1.7 2.7 1.7 14.1 0 11.3-.2 13.3-1.7 14.4-1.6 1.2-1.3 1.3 2.2 1.3s3.8-.1 2.3-1.3c-1.5-1.1-1.8-3.1-1.8-13 0-6.5.3-11.5.8-11.2.4.2 3.6 6.1 7.2 13 6.3 12.2 6.6 12.6 9.8 12.6h3.2v-14.9c0-11 .3-15.1 1.3-15.4.6-.3-.3-.6-2.2-.6-3.1-.1-3.3.1-1.7 1.2 1.4 1 1.6 2.6 1.4 10.2l-.3 9-5.5-10.2-5.5-10.3H924c-4.9.1-6.1.3-4.7 1.1zm69 .9c-8.3 5.4-8.4 21.9-.1 27 2.8 1.7 4.7 2 12 1.8l8.8-.3v-5.2c0-2.8.3-5.8.6-6.7.5-1.4-.3-1.6-5.5-1.6-3.4 0-6.1.4-6.1 1 0 .5.5 1 1 1 1.6 0 1.2 10-.4 10.6-5.8 2.2-9.7-11.4-6.5-22.9 2-7.2 8.2-7.1 12.5.3 2.4 3.9 3.8 3.8 3-.1-.3-1.7-.6-3.9-.6-4.8 0-1.3-1.4-1.6-7.8-1.9-6.4-.2-8.2.1-10.9 1.8z"/></svg>